<?xml version="1.0" encoding="UTF-8" standalone="no"?>
<svg
   xmlns:dc="http://purl.org/dc/elements/1.1/"
   xmlns:cc="http://creativecommons.org/ns#"
   xmlns:rdf="http://www.w3.org/1999/02/22-rdf-syntax-ns#"
   xmlns:svg="http://www.w3.org/2000/svg"
   xmlns="http://www.w3.org/2000/svg"
   xmlns:sodipodi="http://sodipodi.sourceforge.net/DTD/sodipodi-0.dtd"
   xmlns:inkscape="http://www.inkscape.org/namespaces/inkscape"
   width="685"
   height="56"
   viewBox="0 0 685 56"
   fill="none"
   version="1.1"
   id="svg12"
   sodipodi:docname="search011.svg"
   inkscape:version="0.92.3 (2405546, 2018-03-11)">
  <metadata
     id="metadata18">
    <rdf:RDF>
      <cc:Work
         rdf:about="">
        <dc:format>image/svg+xml</dc:format>
        <dc:type
           rdf:resource="http://purl.org/dc/dcmitype/StillImage" />
      </cc:Work>
    </rdf:RDF>
  </metadata>
  <defs
     id="defs16" />
  <sodipodi:namedview
     pagecolor="#ffffff"
     bordercolor="#666666"
     borderopacity="1"
     objecttolerance="10"
     gridtolerance="10"
     guidetolerance="10"
     inkscape:pageopacity="0"
     inkscape:pageshadow="2"
     inkscape:window-width="1920"
     inkscape:window-height="1018"
     id="namedview14"
     showgrid="false"
     inkscape:zoom="1.3504346"
     inkscape:cx="225.93653"
     inkscape:cy="41.003521"
     inkscape:window-x="-8"
     inkscape:window-y="-8"
     inkscape:window-maximized="1"
     inkscape:current-layer="svg12" />
  <rect
     x="0.51137656"
     y="0.51137656"
     width="349.27017"
     height="27.614334"
     rx="13.807167"
     id="rect2"
     inkscape:export-xdpi="28.029198"
     inkscape:export-ydpi="28.029198"
     style="fill:#ffffff;stroke:#0288d1;stroke-width:1.02275312" />
  <path
     d="m 340.25257,13.985228 h -9.39194"
     id="path4"
     inkscape:connector-curvature="0"
     style="stroke:#0288d1;stroke-width:1.53412962;stroke-linecap:round" />
  <path
     d="m 337.07027,9.7161544 4.26897,4.2690736 -4.26897,4.269074"
     id="path6"
     inkscape:connector-curvature="0"
     style="stroke:#0288d1;stroke-width:1.53412962;stroke-linecap:round;stroke-linejoin:round" />
  <path
     d="m 335.9744,25.568827 c 6.21322,0 11.25027,-5.036906 11.25027,-11.250283 0,-6.2133791 -5.03705,-11.2502847 -11.25027,-11.2502847 -6.21323,0 -11.25029,5.0369056 -11.25029,11.2502847 0,6.213377 5.03706,11.250283 11.25029,11.250283 z"
     id="path8"
     inkscape:connector-curvature="0"
     style="stroke:#0288d1;stroke-width:1.02275312" />
  <path
     d="m 24.555075,15.638457 c 0,0.578265 -0.209767,1.029248 -0.629249,1.352847 -0.419483,0.323599 -0.988798,0.485399 -1.707895,0.485399 -0.779083,0 -1.378314,-0.100383 -1.797847,-0.30115 v -0.737098 c 0.2697,0.113884 0.563332,0.203733 0.880948,0.269699 0.317616,0.06592 0.632215,0.09886 0.943848,0.09886 0.509382,0 0.892915,-0.09588 1.150597,-0.287649 0.257683,-0.194733 0.38655,-0.464433 0.38655,-0.808998 0,-0.227715 -0.04648,-0.413499 -0.139351,-0.557349 -0.0899,-0.146816 -0.242699,-0.281616 -0.458449,-0.404499 -0.212733,-0.122832 -0.537815,-0.262183 -0.975297,-0.417999 -0.611248,-0.218716 -1.048731,-0.477882 -1.312397,-0.777548 -0.2607,-0.299616 -0.391049,-0.690666 -0.391049,-1.173047 0,-0.506365 0.190283,-0.90938 0.570799,-1.209048 0.380565,-0.299615 0.883965,-0.449448 1.510197,-0.449448 0.653181,0 1.253946,0.119866 1.802295,0.359549 l -0.2382,0.665199 c -0.542365,-0.227722 -1.069697,-0.341555 -1.582096,-0.341555 -0.404499,0 -0.720632,0.08689 -0.948348,0.260649 -0.227716,0.173817 -0.341549,0.414982 -0.341549,0.72365 0,0.227715 0.04193,0.414981 0.125799,0.561798 0.08392,0.143799 0.22475,0.277165 0.4225,0.399998 0.200766,0.119866 0.506416,0.253183 0.916898,0.399999 0.689131,0.245717 1.162563,0.509382 1.420246,0.791049 0.260699,0.281665 0.39105,0.647198 0.39105,1.096697 z m 3.312441,1.838246 c -0.728098,0 -1.303396,-0.221733 -1.725896,-0.665199 -0.419482,-0.443465 -0.629248,-1.059214 -0.629248,-1.847245 0,-0.794015 0.194783,-1.424747 0.584299,-1.892196 0.392532,-0.467449 0.918381,-0.701148 1.577596,-0.701148 0.617232,0 1.105647,0.203732 1.465196,0.611248 0.359549,0.404499 0.539349,0.939348 0.539349,1.604546 v 0.471949 H 26.28547 c 0.01498,0.578266 0.160266,1.017231 0.435949,1.316898 0.27865,0.299615 0.669699,0.449449 1.173098,0.449449 0.530349,0 1.054714,-0.110867 1.573045,-0.3326 v 0.665199 c -0.263666,0.113832 -0.513882,0.194732 -0.750598,0.242699 -0.233699,0.05093 -0.516849,0.0764 -0.849448,0.0764 z m -0.202249,-4.48104 c -0.395498,0 -0.711632,0.128816 -0.948348,0.386499 -0.233699,0.257733 -0.371515,0.614266 -0.4135,1.069697 h 2.575395 c 0,-0.470416 -0.104882,-0.829964 -0.31465,-1.078646 -0.209715,-0.2517 -0.509382,-0.37755 -0.898897,-0.37755 z m 6.319285,4.39114 -0.1483,-0.701149 h -0.03595 c -0.245716,0.308616 -0.491433,0.518383 -0.737098,0.629249 -0.2427,0.10785 -0.546865,0.1618 -0.912398,0.1618 -0.488415,0 -0.871948,-0.12585 -1.150597,-0.377549 -0.275684,-0.2517 -0.4135,-0.609766 -0.4135,-1.074198 0,-0.994781 0.79555,-1.51613 2.386596,-1.564097 l 0.835998,-0.02694 v -0.30565 c 0,-0.386499 -0.08392,-0.671182 -0.2517,-0.853947 -0.164817,-0.185783 -0.430016,-0.27865 -0.795548,-0.27865 -0.410482,0 -0.874915,0.12585 -1.393297,0.37755 l -0.229199,-0.570799 c 0.2427,-0.131883 0.507848,-0.235233 0.795498,-0.310149 0.290665,-0.07492 0.581282,-0.11235 0.871947,-0.11235 0.587265,0 1.021731,0.13035 1.303397,0.390999 0.284683,0.260699 0.427,0.678699 0.427,1.253997 v 3.361892 z m -1.685447,-0.525848 c 0.464432,0 0.828482,-0.127334 1.092198,-0.38205 0.266683,-0.254666 0.399999,-0.611249 0.399999,-1.069698 v -0.444948 l -0.746098,0.03145 c -0.593248,0.02097 -1.021731,0.113884 -1.285447,0.278649 -0.260649,0.161799 -0.390999,0.415033 -0.390999,0.759599 0,0.269648 0.0809,0.474915 0.242699,0.615748 0.164817,0.140834 0.394016,0.211251 0.687648,0.211251 z m 6.027187,-4.49004 c 0.218715,0 0.414982,0.018 0.588748,0.05395 l -0.103349,0.692148 c -0.203784,-0.04495 -0.383533,-0.0674 -0.53935,-0.0674 -0.398515,0 -0.740115,0.161799 -1.024747,0.485399 -0.281666,0.323599 -0.422499,0.726614 -0.422499,1.208996 v 2.642794 h -0.746099 v -4.925989 h 0.615749 l 0.0854,0.912399 h 0.03595 c 0.182817,-0.320633 0.403015,-0.567833 0.660698,-0.741599 0.257683,-0.173816 0.540883,-0.260699 0.849499,-0.260699 z m 3.478741,5.105788 c -0.713115,0 -1.265963,-0.218767 -1.658496,-0.656199 -0.389516,-0.4405 -0.584248,-1.062232 -0.584248,-1.865246 0,-0.82398 0.197749,-1.460695 0.593248,-1.910145 0.398516,-0.449449 0.964814,-0.674198 1.698946,-0.674198 0.236716,0 0.473433,0.02547 0.710149,0.0764 0.236665,0.05094 0.422448,0.110867 0.557298,0.179801 l -0.2292,0.633697 c -0.164816,-0.06592 -0.344616,-0.119815 -0.539348,-0.1618 -0.194783,-0.04495 -0.367066,-0.0674 -0.516899,-0.0674 -1.000764,0 -1.501147,0.638198 -1.501147,1.914645 0,0.605266 0.12135,1.069698 0.36405,1.393297 0.245717,0.32365 0.608231,0.48545 1.087647,0.48545 0.410532,0 0.831498,-0.08841 1.262997,-0.2652 v 0.660698 c -0.329633,0.1708 -0.744615,0.2562 -1.244997,0.2562 z m 5.788936,-0.0899 V 14.20021 c 0,-0.401532 -0.09139,-0.701148 -0.274149,-0.898948 -0.182766,-0.197749 -0.468932,-0.296599 -0.858447,-0.296599 -0.518383,0 -0.897416,0.140834 -1.137149,0.422449 -0.236716,0.281666 -0.355049,0.743132 -0.355049,1.384348 v 2.575343 H 44.223077 V 10.39332 h 0.746098 v 2.116944 c 0,0.254667 -0.01197,0.465916 -0.03595,0.633699 h 0.04494 c 0.146817,-0.236717 0.35505,-0.422449 0.62475,-0.557299 0.272665,-0.137816 0.582764,-0.206749 0.930346,-0.206749 0.602249,0 1.053231,0.143799 1.352847,0.431448 0.302633,0.284683 0.453949,0.738633 0.453949,1.361847 v 3.213593 z m 6.894736,-4.34619 H 53.23481 v 4.34619 h -0.746098 v -4.34619 H 51.60761 v -0.337099 l 0.881102,-0.269649 v -0.2742 c 0,-1.210531 0.528763,-1.815795 1.58629,-1.815795 0.260802,0 0.566605,0.05246 0.916898,0.15735 l -0.1933,0.597748 c -0.287394,-0.09286 -0.533366,-0.13935 -0.736894,-0.13935 -0.281768,0 -0.489899,0.0944 -0.624902,0.2832 -0.135003,0.185732 -0.201994,0.485398 -0.201994,0.898898 v 0.319098 h 1.253895 z m 5.150585,1.878695 c 0,0.803015 -0.202505,1.430781 -0.607004,1.883196 -0.404498,0.449449 -0.962921,0.674199 -1.676292,0.674199 -0.440295,0 -0.831498,-0.103401 -1.173098,-0.31015 -0.3416,-0.20675 -0.604959,-0.503348 -0.791099,-0.889898 -0.18563,-0.386549 -0.278701,-0.838964 -0.278701,-1.357347 0,-0.803015 0.200971,-1.427763 0.602402,-1.874195 0.40143,-0.449449 0.958831,-0.674198 1.672201,-0.674198 0.688825,0 1.235997,0.229198 1.640496,0.687648 0.407567,0.458449 0.611095,1.078697 0.611095,1.860745 z m -3.752992,0 c 0,0.629249 0.125798,1.108664 0.377395,1.438247 0.252109,0.329582 0.621834,0.494399 1.110199,0.494399 0.488364,0 0.858601,-0.163282 1.110198,-0.489899 0.254666,-0.329582 0.381999,-0.810531 0.381999,-1.442747 0,-0.626231 -0.127333,-1.101146 -0.381999,-1.424745 -0.251597,-0.326617 -0.624391,-0.4899 -1.118891,-0.4899 -0.488365,0 -0.857068,0.160266 -1.105597,0.480899 -0.24904,0.320582 -0.373304,0.798515 -0.373304,1.433746 z m 7.312684,-2.548393 c 0.218869,0 0.414727,0.018 0.588595,0.05395 l -0.103299,0.692149 c -0.203527,-0.04495 -0.383532,-0.0674 -0.539502,-0.0674 -0.398362,0 -0.739961,0.161799 -1.024287,0.485399 -0.281768,0.323599 -0.422908,0.726614 -0.422908,1.208996 v 2.642794 h -0.746099 v -4.925989 h 0.616209 l 0.08489,0.912399 h 0.03631 c 0.182562,-0.320633 0.402965,-0.567833 0.6607,-0.741599 0.257733,-0.173816 0.540524,-0.260699 0.849395,-0.260699 z m 6.930687,5.015888 -0.148299,-0.701149 h -0.03631 c -0.24546,0.308616 -0.491433,0.518383 -0.736893,0.629249 -0.242903,0.10785 -0.546661,0.1618 -0.912295,0.1618 -0.488365,0 -0.871898,-0.12585 -1.150598,-0.377549 -0.275632,-0.2517 -0.413703,-0.609766 -0.413703,-1.074198 0,-0.994781 0.795701,-1.51613 2.386594,-1.564097 l 0.8361,-0.02694 v -0.30565 c 0,-0.386499 -0.08387,-0.671182 -0.251597,-0.853947 -0.165174,-0.185783 -0.430068,-0.27865 -0.795702,-0.27865 -0.410635,0 -0.874966,0.12585 -1.393501,0.37755 l -0.229096,-0.570799 c 0.242903,-0.131884 0.507796,-0.235233 0.795702,-0.310149 0.290461,-0.07492 0.581435,-0.11235 0.871896,-0.11235 0.58706,0 1.02173,0.13035 1.303499,0.390999 0.284326,0.260699 0.427,0.678699 0.427,1.253997 v 3.361892 z m -1.685498,-0.525848 c 0.464331,0 0.82843,-0.127334 1.092301,-0.38205 0.266427,-0.254666 0.399897,-0.611249 0.399897,-1.069698 v -0.444948 l -0.7461,0.03145 c -0.593195,0.02097 -1.02173,0.113884 -1.2856,0.278649 -0.260802,0.161799 -0.391203,0.415033 -0.391203,0.759599 0,0.269648 0.08131,0.474915 0.242904,0.615748 0.164663,0.140834 0.394272,0.211251 0.687801,0.211251 z m 7.150579,0.525848 V 14.20021 c 0,-0.401532 -0.09153,-0.701148 -0.274098,-0.898948 -0.182561,-0.197749 -0.468932,-0.296599 -0.858601,-0.296599 -0.514956,0 -0.892863,0.1393 -1.132699,0.417948 -0.239324,0.278701 -0.359498,0.738633 -0.359498,1.379848 v 2.584344 h -0.746098 v -4.925989 h 0.607004 l 0.121196,0.674148 h 0.03631 c 0.152391,-0.242699 0.366658,-0.429965 0.64229,-0.561798 0.275632,-0.13485 0.582969,-0.202249 0.9215,-0.202249 0.593197,0 1.039629,0.14385 1.339295,0.431499 0.299667,0.284633 0.4495,0.741599 0.4495,1.370796 v 3.213593 z m 1.501401,-4.925989 h 0.799793 l 1.079004,2.809095 c 0.236257,0.641214 0.383533,1.104112 0.440296,1.388795 h 0.03579 c 0.03886,-0.152849 0.120174,-0.413498 0.242904,-0.782048 0.125799,-0.371566 0.533366,-1.510145 1.22219,-3.415842 h 0.800304 l -2.117099,5.609137 c -0.209664,0.554331 -0.455124,0.946864 -0.736893,1.177598 -0.2787,0.233698 -0.621834,0.350548 -1.029401,0.350548 -0.227562,0 -0.452568,-0.02547 -0.673994,-0.0764 v -0.597748 c 0.164663,0.03595 0.348759,0.0539 0.552797,0.0539 0.5124,0 0.878034,-0.287649 1.096392,-0.862949 l 0.274098,-0.701148 z m 7.712582,-0.08089 c 0.646891,0 1.149063,0.221733 1.505492,0.665198 0.359498,0.44045 0.539502,1.065198 0.539502,1.874196 0,0.808997 -0.181539,1.438246 -0.544104,1.887695 -0.359498,0.446483 -0.859624,0.669699 -1.50089,0.669699 -0.320633,0 -0.614164,-0.05845 -0.881103,-0.1753 -0.26387,-0.119867 -0.485296,-0.302633 -0.6653,-0.548349 h -0.05369 l -0.157505,0.633749 h -0.5349 v -6.993483 h 0.746099 v 1.698946 c 0,0.380515 -0.01176,0.722115 -0.0358,1.024747 h 0.0358 c 0.347736,-0.491381 0.863204,-0.737098 1.546403,-0.737098 z m -0.107901,0.624749 c -0.509331,0 -0.876499,0.146816 -1.101505,0.440448 -0.224494,0.290667 -0.336997,0.782048 -0.336997,1.474197 0,0.692148 0.115571,1.18803 0.346202,1.487696 0.23063,0.29665 0.600867,0.444949 1.110199,0.444949 0.458193,0 0.799793,-0.1663 1.024798,-0.498899 0.224494,-0.335565 0.336997,-0.816514 0.336997,-1.442747 0,-0.641214 -0.112503,-1.119096 -0.336997,-1.433746 -0.225005,-0.314599 -0.572231,-0.471898 -1.042697,-0.471898 z m 7.712581,1.914645 c 0,0.803015 -0.202505,1.430781 -0.607004,1.883195 -0.404499,0.449449 -0.962922,0.674199 -1.676292,0.674199 -0.440296,0 -0.831498,-0.103401 -1.173098,-0.31015 -0.341599,-0.20675 -0.60547,-0.503348 -0.791099,-0.889898 -0.185631,-0.386549 -0.278701,-0.838964 -0.278701,-1.357346 0,-0.803015 0.200971,-1.427764 0.602402,-1.874196 0.401431,-0.449448 0.958831,-0.674198 1.672201,-0.674198 0.688824,0 1.235998,0.229199 1.640496,0.687648 0.407056,0.458449 0.611095,1.078697 0.611095,1.860746 z m -3.752992,0 c 0,0.629249 0.125798,1.108664 0.377396,1.438246 0.251597,0.329582 0.621834,0.494399 1.110198,0.494399 0.488365,0 0.858601,-0.163282 1.110199,-0.489899 0.254665,-0.329582 0.381998,-0.810531 0.381998,-1.442746 0,-0.626232 -0.127333,-1.101147 -0.381998,-1.424746 -0.251598,-0.326617 -0.624902,-0.489899 -1.118892,-0.489899 -0.488876,0 -0.857067,0.160265 -1.106108,0.480899 -0.248529,0.320581 -0.372793,0.798514 -0.372793,1.433746 z m 8.41828,1.806796 h -0.0404 c -0.344667,0.500382 -0.860135,0.750598 -1.546402,0.750598 -0.643823,0 -1.145995,-0.22025 -1.505493,-0.660699 -0.356429,-0.440448 -0.534899,-1.06668 -0.534899,-1.878695 0,-0.812015 0.180004,-1.442746 0.539502,-1.892196 0.359497,-0.449448 0.859624,-0.674198 1.50089,-0.674198 0.66837,0 1.180768,0.242699 1.537197,0.728097 h 0.0583 l -0.0312,-0.355048 -0.0179,-0.3461 v -2.004544 h 0.746098 v 6.993483 h -0.607003 z m -1.492196,0.125849 c 0.50933,0 0.878033,-0.137816 1.105596,-0.413499 0.230631,-0.278649 0.346201,-0.726615 0.346201,-1.343847 v -0.157299 c 0,-0.698183 -0.117105,-1.195548 -0.350803,-1.492197 -0.230632,-0.299615 -0.600868,-0.449449 -1.110199,-0.449449 -0.437227,0 -0.77269,0.1708 -1.006389,0.512348 -0.231142,0.338583 -0.346202,0.817998 -0.346202,1.438247 0,0.629249 0.11506,1.104164 0.346202,1.424797 0.23063,0.320583 0.569162,0.480899 1.015594,0.480899 z m 3.002291,-4.391139 h 0.799793 l 1.079001,2.809094 c 0.23677,0.641214 0.38354,1.104112 0.4403,1.388796 h 0.0358 c 0.0394,-0.15285 0.12018,-0.413499 0.24291,-0.782049 0.1258,-0.371566 0.53336,-1.510145 1.2227,-3.415841 h 0.79979 l -2.11659,5.609136 c -0.21017,0.554332 -0.45563,0.946865 -0.7374,1.177598 -0.2787,0.233698 -0.621834,0.350549 -1.029401,0.350549 -0.227563,0 -0.452057,-0.02547 -0.673994,-0.0764 V 18.92395 c 0.164663,0.03595 0.34927,0.0539 0.552798,0.0539 0.512399,0 0.878037,-0.287649 1.096907,-0.862949 l 0.27409,-0.701148 z"
     id="path10"
     inkscape:connector-curvature="0"
     style="fill:#919191;stroke-width:0.51137656" />
</svg>
